<?xml version="1.0" encoding="UTF-8"?>
<svg data-bbox="1.53 12.52 44.94 22.96" viewBox="0 0 48 48" xmlns="http://www.w3.org/2000/svg" data-type="color">
    <g>
        <path d="M30.74 17.1c3.66.01 6.85.01 7.26.01 5.74 0 4.75-4.59 4.75-4.59H32.01z" fill="#0076a3" data-color="1"/>
        <path d="M38.81 21.64h-9.33l-1.27 4.58c2.21 0 4.54.01 5.82.01 5.74.01 4.78-4.59 4.78-4.59" fill="#0076a3" data-color="1"/>
        <path fill="#0076a3" d="M25.73 35.23h20.74v-4.59H27z" data-color="1"/>
        <path d="M25.14 30.9c-3.66-.01-6.85-.01-7.26-.01-5.74 0-4.75 4.59-4.75 4.59h10.74z" fill="#939598" data-color="2"/>
        <path d="M17.07 26.36h9.33l1.27-4.58c-2.21 0-4.54-.01-5.82-.01-5.74-.01-4.78 4.59-4.78 4.59" fill="#939598" data-color="2"/>
        <path fill="#939598" d="M30.16 12.77H4.14l-2.61 4.59h27.36z" data-color="2"/>
    </g>
</svg>
